{
  "accessors": [
    {
      "bufferView": 2,
      "componentType": 5126,
      "count": 124,
      "max": [
        0.9333212375640869,
        1.0,
        0.9332948923110962
      ],
      "min": [
        -0.9303222298622131,
        -1.1420655250549316,
        -0.9237273931503296
      ],
      "type": "VEC3"
    },
    {
      "bufferView": 2,
      "byteOffset": 1488,
      "componentType": 5126,
      "count": 124,
      "max": [
        0.9912136793136597,
        0.9397472143173218,
        0.9970847964286804
      ],
      "min": [
        -0.9878168702125549,
        -0.9268660545349121,
        -0.9890223741531372
      ],
      "type": "VEC3"
    },
    {
      "bufferView": 1,
      "componentType": 5126,
      "count": 124,
      "max": [
        0.7184651494026184,
        0.9998651742935181
      ],
      "min": [
        0.00013484696683008224,
        0.00013484696683008224
      ],
      "type": "VEC2"
    },
    {
      "bufferView": 0,
      "componentType": 5125,
      "count": 564,
      "type": "SCALAR"
    },
    {
      "bufferView": 2,
      "byteOffset": 2976,
      "componentType": 5126,
      "count": 10293,
      "max": [
        1.6077139377593994,
        3.2394042015075684,
        7.712103366851807
      ],
      "min": [
        -1.9225435256958008,
        -1.4315848350524902,
        -0.8437502980232239
      ],
      "type": "VEC3"
    },
    {
      "bufferView": 2,
      "byteOffset": 126492,
      "componentType": 5126,
      "count": 10293,
      "max": [
        0.9998239278793335,
        0.9996825456619263,
        0.9688010215759277
      ],
      "min": [
        -0.9998314380645752,
        -0.9996196031570435,
        -0.9994784593582153
      ],
      "type": "VEC3"
    },
    {
      "bufferView": 1,
      "byteOffset": 992,
      "componentType": 5126,
      "count": 10293,
      "max": [
        1.002472162246704,
        1.0026524066925049
      ],
      "min": [
        -0.002652406692504883,
        -0.002652406692504883
      ],
      "type": "VEC2"
    },
    {
      "bufferView": 0,
      "byteOffset": 2256,
      "componentType": 5125,
      "count": 51033,
      "type": "SCALAR"
    },
    {
      "bufferView": 2,
      "byteOffset": 250008,
      "componentType": 5126,
      "count": 7400,
      "max": [
        1.0977224111557007,
        -0.9115613102912903,
        2.195676565170288
      ],
      "min": [
        -1.0977222919464111,
        -3.3147900104522705,
        -1.2115633487701416
      ],
      "type": "VEC3"
    },
    {
      "bufferView": 2,
      "byteOffset": 338808,
      "componentType": 5126,
      "count": 7400,
      "max": [
        0.999948263168335,
        0.9998416900634766,
        0.9925883412361145
      ],
      "min": [
        -0.999948263168335,
        -0.999998927116394,
        -0.998564600944519
      ],
      "type": "VEC3"
    },
    {
      "bufferView": 1,
      "byteOffset": 83336,
      "componentType": 5126,
      "count": 7400,
      "max": [
        0.9834248423576355,
        0.8618014454841614
      ],
      "min": [
        0.0006692798342555761,
        -0.0012029784265905619
      ],
      "type": "VEC2"
    },
    {
      "bufferView": 0,
      "byteOffset": 206388,
      "componentType": 5125,
      "count": 30564,
      "type": "SCALAR"
    },
    {
      "bufferView": 2,
      "byteOffset": 427608,
      "componentType": 5126,
      "count": 6705,
      "max": [
        1.656793236732483,
        1.7954919338226318,
        6.274198055267334
      ],
      "min": [
        -1.840142011642456,
        -1.9291203022003174,
        -2.2611536979675293
      ],
      "type": "VEC3"
    },
    {
      "bufferView": 2,
      "byteOffset": 508068,
      "componentType": 5126,
      "count": 6705,
      "max": [
        0.9998245239257813,
        0.9995779991149902,
        0.7326686978340149
      ],
      "min": [
        -0.9981576204299927,
        -0.9999401569366455,
        -0.9992930889129639
      ],
      "type": "VEC3"
    },
    {
      "bufferView": 1,
      "byteOffset": 142536,
      "componentType": 5126,
      "count": 6705,
      "max": [
        1.0025275945663452,
        1.0027118921279907
      ],
      "min": [
        -0.0027119219303131104,
        -0.0027119219303131104
      ],
      "type": "VEC2"
    },
    {
      "bufferView": 0,
      "byteOffset": 328644,
      "componentType": 5125,
      "count": 32955,
      "type": "SCALAR"
    },
    {
      "bufferView": 2,
      "byteOffset": 588528,
      "componentType": 5126,
      "count": 7403,
      "max": [
        1.0977224111557007,
        -0.8433701992034912,
        2.195676565170288
      ],
      "min": [
        -1.0977222919464111,
        -3.3147900104522705,
        -1.2115633487701416
      ],
      "type": "VEC3"
    },
    {
      "bufferView": 2,
      "byteOffset": 677364,
      "componentType": 5126,
      "count": 7403,
      "max": [
        0.9997391700744629,
        0.9999977350234985,
        0.9984562993049622
      ],
      "min": [
        -0.9997398853302002,
        -0.999998927116394,
        -0.998564600944519
      ],
      "type": "VEC3"
    },
    {
      "bufferView": 1,
      "byteOffset": 196176,
      "componentType": 5126,
      "count": 7403,
      "max": [
        0.992567777633667,
        0.8174039125442505
      ],
      "min": [
        0.0006500339950434864,
        -0.006376826204359531
      ],
      "type": "VEC2"
    },
    {
      "bufferView": 0,
      "byteOffset": 460464,
      "componentType": 5125,
      "count": 30564,
      "type": "SCALAR"
    }
  ],
  "asset": {
    "extras": {
      "author": "H.art (https://sketchfab.com/h.art)",
      "license": "CC-BY-4.0 (http://creativecommons.org/licenses/by/4.0/)",
      "source": "https://sketchfab.com/3d-models/anime-hair-478d75c2552d46ff831a9d19eb07d4b6",
      "title": "Anime-Hair"
    },
    "generator": "Sketchfab-12.65.0",
    "version": "2.0"
  },
  "bufferViews": [
    {
      "buffer": 0,
      "byteLength": 582720,
      "name": "floatBufferViews",
      "target": 34963
    },
    {
      "buffer": 0,
      "byteLength": 255400,
      "byteOffset": 582720,
      "byteStride": 8,
      "name": "floatBufferViews",
      "target": 34962
    },
    {
      "buffer": 0,
      "byteLength": 766200,
      "byteOffset": 838120,
      "byteStride": 12,
      "name": "floatBufferViews",
      "target": 34962
    }
  ],
  "buffers": [
    {
      "byteLength": 1604320,
      "uri": "scene.bin"
    }
  ],
  "images": [
    {
      "uri": "textures/Hair-female_baseColor.png"
    },
    {
      "uri": "textures/Hair-female_metallicRoughness.png"
    },
    {
      "uri": "textures/Heir-male_baseColor.png"
    },
    {
      "uri": "textures/Heir-male_metallicRoughness.png"
    }
  ],
  "materials": [
    {
      "doubleSided": true,
      "name": "material",
      "pbrMetallicRoughness": {
        "baseColorFactor": [
          0.1324801114876345,
          0.016888746632492235,
          0.7178595000890386,
          1.0
        ],
        "metallicFactor": 0.0,
        "roughnessFactor": 0.0
      }
    },
    {
      "doubleSided": true,
      "name": "Hair-female",
      "pbrMetallicRoughness": {
        "baseColorTexture": {
          "index": 0
        },
        "metallicFactor": 0.0,
        "metallicRoughnessTexture": {
          "index": 1
        }
      }
    },
    {
      "doubleSided": true,
      "name": "head-anime",
      "pbrMetallicRoughness": {
        "baseColorFactor": [
          0.3323912590814445,
          0.08842023738561836,
          0.03579099369983124,
          1.0
        ],
        "metallicFactor": 0.0
      }
    },
    {
      "doubleSided": true,
      "name": "Heir-male",
      "pbrMetallicRoughness": {
        "baseColorTexture": {
          "index": 2
        },
        "metallicFactor": 0.0,
        "metallicRoughnessTexture": {
          "index": 3
        }
      }
    }
  ],
  "meshes": [
    {
      "name": "Object_0",
      "primitives": [
        {
          "attributes": {
            "NORMAL": 1,
            "POSITION": 0,
            "TEXCOORD_0": 2
          },
          "indices": 3,
          "material": 0,
          "mode": 4
        }
      ]
    },
    {
      "name": "Object_1",
      "primitives": [
        {
          "attributes": {
            "NORMAL": 5,
            "POSITION": 4,
            "TEXCOORD_0": 6
          },
          "indices": 7,
          "material": 1,
          "mode": 4
        }
      ]
    },
    {
      "name": "Object_2",
      "primitives": [
        {
          "attributes": {
            "NORMAL": 9,
            "POSITION": 8,
            "TEXCOORD_0": 10
          },
          "indices": 11,
          "material": 2,
          "mode": 4
        }
      ]
    },
    {
      "name": "Object_3",
      "primitives": [
        {
          "attributes": {
            "NORMAL": 13,
            "POSITION": 12,
            "TEXCOORD_0": 14
          },
          "indices": 15,
          "material": 3,
          "mode": 4
        }
      ]
    },
    {
      "name": "Object_4",
      "primitives": [
        {
          "attributes": {
            "NORMAL": 17,
            "POSITION": 16,
            "TEXCOORD_0": 18
          },
          "indices": 19,
          "material": 2,
          "mode": 4
        }
      ]
    }
  ],
  "nodes": [
    {
      "children": [
        1
      ],
      "matrix": [
        1.0,
        0.0,
        0.0,
        0.0,
        0.0,
        2.220446049250313e-16,
        -1.0,
        0.0,
        0.0,
        1.0,
        2.220446049250313e-16,
        0.0,
        0.0,
        0.0,
        0.0,
        1.0
      ],
      "name": "Sketchfab_model"
    },
    {
      "children": [
        2
      ],
      "name": "root"
    },
    {
      "children": [
        3,
        5,
        7,
        9,
        11
      ],
      "matrix": [
        1.0,
        0.0,
        0.0,
        0.0,
        0.0,
        2.220446049250313e-16,
        1.0,
        0.0,
        0.0,
        -1.0,
        2.220446049250313e-16,
        0.0,
        0.0,
        0.0,
        0.0,
        1.0
      ],
      "name": "GLTF_SceneRootNode"
    },
    {
      "children": [
        4
      ],
      "matrix": [
        0.07140793531019696,
        -0.14771101893814784,
        0.0038897700053100435,
        0.0,
        0.07232380559883653,
        0.034795175282493825,
        -0.006391852589335584,
        0.0,
        0.010045643497489981,
        0.009163175658835268,
        0.16354780652565074,
        0.0,
        3.6705617904663086,
        3.296102523803711,
        -0.45165926218032837,
        1.0
      ],
      "name": "fastener_1"
    },
    {
      "mesh": 0,
      "name": "Object_4"
    },
    {
      "children": [
        6
      ],
      "matrix": [
        0.44223264192567574,
        -0.1488480816116296,
        0.7175497860541518,
        0.0,
        0.6643230091661237,
        -0.00014901040169111406,
        -0.4094593923073217,
        0.0,
        -0.03414052768233916,
        -0.36780965855893066,
        -0.05525708054219329,
        -0.0,
        2.152770757675171,
        3.5014777183532715,
        0.5178741812705994,
        1.0
      ],
      "name": "Hair-female_2"
    },
    {
      "mesh": 1,
      "name": "Object_6"
    },
    {
      "children": [
        8
      ],
      "matrix": [
        1.0,
        0.0,
        0.0,
        0.0,
        0.0,
        0.08944439101464075,
        0.9959918176953163,
        0.0,
        0.0,
        -0.9959918176953163,
        0.08944439101464075,
        0.0,
        2.4172582626342773,
        2.6716792583465576,
        2.0059192180633545,
        1.0
      ],
      "name": "Head-female_3"
    },
    {
      "mesh": 2,
      "name": "Object_8"
    },
    {
      "children": [
        10
      ],
      "matrix": [
        0.3151041441430914,
        0.2605123952975528,
        0.7519613199430977,
        0.0,
        0.7236704913413218,
        -0.040535679693464534,
        -0.28920573177914966,
        0.0,
        0.02508523651923521,
        -0.3552509402128646,
        0.11256271983370837,
        -0.0,
        -2.31832218170166,
        3.5795085430145264,
        -0.25359201431274414,
        1.0
      ],
      "name": "haiir-male_4"
    },
    {
      "mesh": 3,
      "name": "Object_10"
    },
    {
      "children": [
        12
      ],
      "matrix": [
        1.0,
        0.0,
        0.0,
        0.0,
        0.0,
        0.08944439101464075,
        0.9959918176953163,
        0.0,
        0.0,
        -0.9959918176953163,
        0.08944439101464075,
        0.0,
        -2.3539540767669678,
        2.6716792583465576,
        2.0059192180633545,
        1.0
      ],
      "name": "head-male_5"
    },
    {
      "mesh": 4,
      "name": "Object_12"
    }
  ],
  "samplers": [
    {
      "magFilter": 9729,
      "minFilter": 9987,
      "wrapS": 10497,
      "wrapT": 10497
    }
  ],
  "scene": 0,
  "scenes": [
    {
      "name": "Sketchfab_Scene",
      "nodes": [
        0
      ]
    }
  ],
  "textures": [
    {
      "sampler": 0,
      "source": 0
    },
    {
      "sampler": 0,
      "source": 1
    },
    {
      "sampler": 0,
      "source": 2
    },
    {
      "sampler": 0,
      "source": 3
    }
  ]
}
